<svg xmlns="http://www.w3.org/2000/svg" width="20.997" height="20.997"><path d="M10.498 0C4.7 0 0 4.7 0 10.499c0 5.798 4.7 10.498 10.498 10.498a10.498 10.498 0 0 0 10.499-10.498C20.997 4.7 16.297 0 10.498 0Zm3.29 10.996-4.54 4.539a.7.7 0 0 1-.99 0 .699.699 0 0 1-.19-.36.7.7 0 0 1 .16-.598.708.708 0 0 1 .03-.032l4.047-4.046L8.26 6.45a.696.696 0 0 1-.193-.365.7.7 0 0 1 .162-.591.708.708 0 0 1 .03-.033.7.7 0 0 1 .957-.03.707.707 0 0 1 .033.03l4.54 4.54a.692.692 0 0 1 .186.332c.013.054.019.11.018.165a.698.698 0 0 1-.17.46.713.713 0 0 1-.035.037Z" fill="#c7b299" fill-rule="evenodd" data-name="1"/></svg>