<svg xmlns="http://www.w3.org/2000/svg" width="24.632" height="24.636"><path d="M22.817 1.804a6.138 6.138 0 0 0-3.409-1.73 6.19 6.19 0 0 0-5.104 1.511 6.199 6.199 0 0 0-.23.219L9.353 6.527a7.157 7.157 0 0 1 1.891-.272h.066a6.978 6.978 0 0 1 2.952.648l2.454-2.456a2.434 2.434 0 0 1 1.262-.671c.72-.14 1.492.046 2.077.559a2.476 2.476 0 0 1 .12.112c.917.917.953 2.385.11 3.346a2.478 2.478 0 0 1-.11.116l-3.084 3.087-2.029 2.029a2.446 2.446 0 0 1-3.46 0l-2.641 2.644a6.083 6.083 0 0 0 1.696 1.2 5.782 5.782 0 0 0 .383.165c.735.29 1.513.434 2.29.434a6.228 6.228 0 0 0 3.863-1.339c.17-.136.358-.29.511-.46l3.187-3.19 1.926-1.927c2.308-2.293 2.415-5.965.323-8.4a6.29 6.29 0 0 0-.323-.348Zm-12.56 16.03-2.353 2.354a2.433 2.433 0 0 1-1.262.672c-.772.15-1.601-.075-2.198-.672a2.452 2.452 0 0 1-.112-3.342 2.481 2.481 0 0 1 .112-.12l5.113-5.115a2.432 2.432 0 0 1 1.263-.672c.72-.14 1.492.047 2.077.559a2.476 2.476 0 0 1 .12.113l2.642-2.645a6.07 6.07 0 0 0-1.662-1.182 5.725 5.725 0 0 0-.417-.181 6.156 6.156 0 0 0-2.285-.44 6.189 6.189 0 0 0-4.14 1.582 1.517 1.517 0 0 0-.003.001c-.062.05-.125.11-.181.166a15.163 15.163 0 0 0-.055.054l-5.114 5.118a6.144 6.144 0 0 0-1.738 3.482 6.196 6.196 0 0 0 1.52 5.036 6.199 6.199 0 0 0 .218.23c2.404 2.405 6.34 2.405 8.744 0l4.619-4.673a29.447 29.447 0 0 1-.685.151c-1.783.369-2.413.245-4.178-.458a48.123 48.123 0 0 1-.046-.018Z" fill="#c7b299" fill-rule="evenodd" data-name="link"/></svg>