<svg xmlns="http://www.w3.org/2000/svg" width="25.161" height="24.46" viewBox="54 0 25.161 24.46"><path d="m78.68 21.696-4.384-4.318a10.842 10.842 0 0 0 2.06-5.974 10.898 10.898 0 0 0 .008-.387C76.364 4.943 71.348 0 65.182 0A11.113 11.113 0 0 0 54 11.017a11.113 11.113 0 0 0 11.182 11.016 11.193 11.193 0 0 0 5.38-1.372 11.355 11.355 0 0 0 1.456-.945l4.335 4.27a1.642 1.642 0 0 0 .896.453c.089.014.178.021.267.021a1.649 1.649 0 0 0 1.11-.423 1.651 1.651 0 0 0 .053-.05c.605-.595.64-1.54.106-2.176a1.649 1.649 0 0 0-.106-.115ZM56.631 11.017c0-4.645 3.836-8.424 8.55-8.424 4.715 0 8.551 3.779 8.551 8.424a8.254 8.254 0 0 1-1.29 4.432 8.534 8.534 0 0 1-.496.701 8.576 8.576 0 0 1-1.243 1.288 8.58 8.58 0 0 1-4.826 1.976 8.714 8.714 0 0 1-.695.028 8.5 8.5 0 0 1-8.551-8.425Z" fill="#fff" fill-rule="evenodd" data-name="lupa"/></svg>